# xmcd
# 
# Track frame offsets:
#     150
#     16765
#     41927
#     70122
# 
# Disc length: 1297
# 
# Revision: 0
# Processed by: cddbd v1.5.2PL0 Copyright (c) Steve Scherf et al.
# Submitted via: fre:ac v1.0.17
# 
DISCID=2c050f04
DTITLE=DJ Hooker - Do the Blues!
DYEAR=1995
DGENRE=
TTITLE0=Do the Blues! (Hit'n House Radio/Video Mix)
TTITLE1=Do the Blues! (Hit'n House Long Blues)
TTITLE2=Do the Blues! (Do the Rave)
TTITLE3=Do the Blues! (Do the House Mix)
EXTD=
EXTT0=
EXTT1=
EXTT2=
EXTT3=
PLAYORDER=
